<svg width="415" height="299" viewBox="0 0 415 299" fill="none" xmlns="http://www.w3.org/2000/svg">
<path d="M135.078 158.781L219.746 53.4102H249.043V78.5078L163.496 183H135.078V158.781ZM247.285 183H172.188L196.797 154.582H247.285V183ZM137.715 53.4102H211.25L186.738 81.7305H137.715V53.4102ZM315.645 183V157.121H347.676V79.2891H315.645V53.4102H364.961L390.938 79.2891V157.121L364.961 183H315.645ZM265.645 53.4102H308.809V183H265.645V53.4102Z" fill="white"/>
<path d="M161.75 227.5C160.77 228.573 159.463 230.09 157.83 232.05C156.243 234.01 154.517 236.18 152.65 238.56C150.83 240.94 148.987 243.437 147.12 246.05C145.3 248.663 143.69 251.16 142.29 253.54H162.31V259H134.52V254.66C135.64 252.607 137.017 250.343 138.65 247.87C140.283 245.397 141.987 242.947 143.76 240.52C145.58 238.047 147.33 235.737 149.01 233.59C150.737 231.397 152.23 229.553 153.49 228.06H135.5V222.6H161.75V227.5ZM167.22 240.87C167.22 237.65 167.687 234.85 168.62 232.47C169.554 230.043 170.79 228.037 172.33 226.45C173.87 224.863 175.644 223.673 177.65 222.88C179.657 222.087 181.71 221.69 183.81 221.69C188.71 221.69 192.467 223.23 195.08 226.31C197.694 229.343 199 233.987 199 240.24C199 240.52 199 240.893 199 241.36C199 241.78 198.977 242.177 198.93 242.55H174.01C174.29 246.33 175.387 249.2 177.3 251.16C179.214 253.12 182.2 254.1 186.26 254.1C188.547 254.1 190.46 253.913 192 253.54C193.587 253.12 194.777 252.723 195.57 252.35L196.48 257.81C195.687 258.23 194.287 258.673 192.28 259.14C190.32 259.607 188.08 259.84 185.56 259.84C182.387 259.84 179.634 259.373 177.3 258.44C175.014 257.46 173.124 256.13 171.63 254.45C170.137 252.77 169.017 250.787 168.27 248.5C167.57 246.167 167.22 243.623 167.22 240.87ZM192.21 237.3C192.257 234.36 191.51 231.957 189.97 230.09C188.477 228.177 186.4 227.22 183.74 227.22C182.247 227.22 180.917 227.523 179.75 228.13C178.63 228.69 177.674 229.437 176.88 230.37C176.087 231.303 175.457 232.377 174.99 233.59C174.57 234.803 174.29 236.04 174.15 237.3H192.21ZM221.792 221.83C222.352 221.83 222.982 221.877 223.682 221.97C224.429 222.017 225.152 222.11 225.852 222.25C226.552 222.343 227.182 222.46 227.742 222.6C228.349 222.693 228.792 222.787 229.072 222.88L227.952 228.55C227.439 228.363 226.575 228.153 225.362 227.92C224.195 227.64 222.679 227.5 220.812 227.5C219.599 227.5 218.385 227.64 217.172 227.92C216.005 228.153 215.235 228.317 214.862 228.41V259H208.352V224.14C209.892 223.58 211.805 223.067 214.092 222.6C216.379 222.087 218.945 221.83 221.792 221.83ZM267.484 240.8C267.484 243.693 267.064 246.307 266.224 248.64C265.384 250.973 264.194 252.98 262.654 254.66C261.161 256.34 259.364 257.647 257.264 258.58C255.164 259.467 252.877 259.91 250.404 259.91C247.931 259.91 245.644 259.467 243.544 258.58C241.444 257.647 239.624 256.34 238.084 254.66C236.591 252.98 235.424 250.973 234.584 248.64C233.744 246.307 233.324 243.693 233.324 240.8C233.324 237.953 233.744 235.363 234.584 233.03C235.424 230.65 236.591 228.62 238.084 226.94C239.624 225.26 241.444 223.977 243.544 223.09C245.644 222.157 247.931 221.69 250.404 221.69C252.877 221.69 255.164 222.157 257.264 223.09C259.364 223.977 261.161 225.26 262.654 226.94C264.194 228.62 265.384 230.65 266.224 233.03C267.064 235.363 267.484 237.953 267.484 240.8ZM260.694 240.8C260.694 236.693 259.761 233.45 257.894 231.07C256.074 228.643 253.577 227.43 250.404 227.43C247.231 227.43 244.711 228.643 242.844 231.07C241.024 233.45 240.114 236.693 240.114 240.8C240.114 244.907 241.024 248.173 242.844 250.6C244.711 252.98 247.231 254.17 250.404 254.17C253.577 254.17 256.074 252.98 257.894 250.6C259.761 248.173 260.694 244.907 260.694 240.8ZM300.163 230.3C299.37 229.647 298.226 229.017 296.733 228.41C295.24 227.803 293.606 227.5 291.833 227.5C289.966 227.5 288.356 227.85 287.003 228.55C285.696 229.203 284.623 230.137 283.783 231.35C282.943 232.517 282.336 233.917 281.963 235.55C281.59 237.183 281.403 238.933 281.403 240.8C281.403 245.047 282.453 248.337 284.553 250.67C286.653 252.957 289.453 254.1 292.953 254.1C294.726 254.1 296.196 254.03 297.363 253.89C298.576 253.703 299.51 253.517 300.163 253.33V230.3ZM300.163 205.8L306.673 204.68V257.95C305.18 258.37 303.266 258.79 300.933 259.21C298.6 259.63 295.916 259.84 292.883 259.84C290.083 259.84 287.563 259.397 285.323 258.51C283.083 257.623 281.17 256.363 279.583 254.73C277.996 253.097 276.76 251.113 275.873 248.78C275.033 246.4 274.613 243.74 274.613 240.8C274.613 238 274.963 235.433 275.663 233.1C276.41 230.767 277.483 228.76 278.883 227.08C280.283 225.4 281.986 224.093 283.993 223.16C286.046 222.227 288.38 221.76 290.993 221.76C293.093 221.76 294.936 222.04 296.523 222.6C298.156 223.16 299.37 223.697 300.163 224.21V205.8ZM315.834 240.87C315.834 237.65 316.3 234.85 317.234 232.47C318.167 230.043 319.404 228.037 320.944 226.45C322.484 224.863 324.257 223.673 326.264 222.88C328.27 222.087 330.324 221.69 332.424 221.69C337.324 221.69 341.08 223.23 343.694 226.31C346.307 229.343 347.614 233.987 347.614 240.24C347.614 240.52 347.614 240.893 347.614 241.36C347.614 241.78 347.59 242.177 347.544 242.55H322.624C322.904 246.33 324 249.2 325.914 251.16C327.827 253.12 330.814 254.1 334.874 254.1C337.16 254.1 339.074 253.913 340.614 253.54C342.2 253.12 343.39 252.723 344.184 252.35L345.094 257.81C344.3 258.23 342.9 258.673 340.894 259.14C338.934 259.607 336.694 259.84 334.174 259.84C331 259.84 328.247 259.373 325.914 258.44C323.627 257.46 321.737 256.13 320.244 254.45C318.75 252.77 317.63 250.787 316.884 248.5C316.184 246.167 315.834 243.623 315.834 240.87ZM340.824 237.3C340.87 234.36 340.124 231.957 338.584 230.09C337.09 228.177 335.014 227.22 332.354 227.22C330.86 227.22 329.53 227.523 328.364 228.13C327.244 228.69 326.287 229.437 325.494 230.37C324.7 231.303 324.07 232.377 323.604 233.59C323.184 234.803 322.904 236.04 322.764 237.3H340.824ZM385.385 222.6C383.565 229.413 381.419 235.947 378.945 242.2C376.519 248.453 374.162 254.053 371.875 259H365.995C363.709 254.053 361.329 248.453 358.855 242.2C356.429 235.947 354.305 229.413 352.485 222.6H359.485C360.045 224.887 360.699 227.337 361.445 229.95C362.239 232.517 363.055 235.083 363.895 237.65C364.782 240.17 365.669 242.62 366.555 245C367.442 247.38 368.282 249.503 369.075 251.37C369.869 249.503 370.709 247.38 371.595 245C372.482 242.62 373.345 240.17 374.185 237.65C375.072 235.083 375.889 232.517 376.635 229.95C377.429 227.337 378.105 224.887 378.665 222.6H385.385Z" fill="white"/>
<path d="M112 55.5458L67.9749 45.8141M112 55.5458L86.7994 87.7822M112 55.5458V135.529M67.9749 45.8141L43.3694 30.7367C42.5832 30.255 41.6791 30 40.7571 30H23.0952C21.2002 30 19.468 31.0713 18.6216 32.7668L8.24754 53.5489C7.61315 54.8197 7.54921 56.3004 8.0717 57.6213L20.0028 87.7822M67.9749 45.8141L70.4039 70.1434M20.0028 87.7822L70.4039 70.1434M20.0028 87.7822L15.1448 109.375M70.4039 70.1434L86.7994 87.7822M70.4039 70.1434L57.0446 94.1687M86.7994 87.7822V109.375M57.0446 94.1687L36.0947 101.772M57.0446 94.1687L74.2372 105.844C74.7143 106.168 75.2438 106.407 75.8024 106.55L86.7994 109.375M15.1448 109.375L36.0947 101.772M15.1448 109.375L38.5237 156.817M15.1448 109.375L7.34721 141.517C7.28297 141.782 7.24049 142.052 7.22018 142.323L3 198.785M36.0947 101.772L46.1142 116.977M54.9192 131.879L38.5237 156.817M54.9192 131.879L76.7799 125.728M54.9192 131.879L46.1142 116.977M81.9415 124.276L86.7994 109.375M81.9415 124.276L92.6586 131.338C93.2004 131.696 93.8066 131.944 94.4432 132.069L112 135.529M81.9415 124.276L76.7799 125.728M81.9415 124.276L75.8704 118.195C75.4676 117.792 74.9989 117.46 74.4845 117.215L69.232 114.71C69.0015 114.6 68.763 114.508 68.5184 114.434L63.5173 112.931C63.0505 112.791 62.5658 112.72 62.0784 112.72H57.0446L52.79 113.193C51.9946 113.282 51.232 113.56 50.5664 114.004L46.1142 116.977M81.9415 124.276L75.0061 126.228C72.3119 126.986 70.7646 129.807 71.5738 132.486L84.0669 173.847M86.7994 109.375L112 135.529M112 135.529L84.0669 173.847M112 135.529V198.785M38.5237 156.817L3 198.785M38.5237 156.817L42.1671 243.794M38.5237 156.817L67.9749 203.651M3 198.785L42.1671 243.794M42.1671 243.794L67.9749 203.651M42.1671 243.794L74.351 238.016M84.0669 173.847L67.9749 203.651M84.0669 173.847L74.351 238.016M84.0669 173.847L112 198.785M74.351 238.016L91.4758 250.437C91.7981 250.671 92.1472 250.865 92.5157 251.016L105.104 256.174C108.394 257.522 112 255.103 112 251.548V239.232M112 198.785V214.903M112 239.232L100.419 234.158C98.6009 233.361 97.4262 231.563 97.4262 229.578V220.85C97.4262 219.391 98.0628 218.006 99.1692 217.056L100.272 216.109C101.178 215.331 102.334 214.903 103.529 214.903H112M112 239.232V214.903M76.7799 125.728L63.3329 126.38C62.9875 126.397 62.6412 126.377 62.2998 126.323L56.4451 125.384C55.6424 125.256 54.8831 124.933 54.2332 124.445L50.7184 121.805C50.4832 121.628 50.264 121.431 50.0635 121.216L46.1142 116.977M105.734 228.501L105.088 228.123C104.278 227.65 103.734 226.825 103.618 225.894V225.894C103.393 224.095 104.796 222.506 106.609 222.506H106.712C107.194 222.506 107.675 222.621 108.106 222.837V222.837C109.183 223.376 109.875 224.483 109.875 225.687V226.124C109.875 226.917 109.533 227.672 108.936 228.194V228.194C108.046 228.974 106.756 229.098 105.734 228.501Z" stroke="white" stroke-width="5"/>
</svg>
